<svg width="147" height="768" viewBox="0 0 147 768" fill="none" xmlns="http://www.w3.org/2000/svg">
<g opacity="0.4">
<circle cx="97" cy="15" r="22" stroke="#FFB038" stroke-width="6"/>
<circle cx="97" cy="15" r="34.5" stroke="#FFF457" stroke-width="6"/>
<circle cx="97" cy="15" r="47" stroke="#9EDCFF" stroke-width="6"/>
<circle cx="10" cy="63" r="22" stroke="#FFB038" stroke-width="6"/>
<circle cx="10" cy="63" r="34.5" stroke="#FFF457" stroke-width="6"/>
<circle cx="10" cy="63" r="47" stroke="#9EDCFF" stroke-width="6"/>
<circle cx="67" cy="139" r="22" stroke="#FFB038" stroke-width="6"/>
<circle cx="67" cy="139" r="34.5" stroke="#FFF457" stroke-width="6"/>
<circle cx="67" cy="139" r="47" stroke="#9EDCFF" stroke-width="6"/>
<circle cx="10" cy="214" r="22" stroke="#FFB038" stroke-width="6"/>
<circle cx="10" cy="214" r="34.5" stroke="#FFF457" stroke-width="6"/>
<circle cx="10" cy="214" r="47" stroke="#9EDCFF" stroke-width="6"/>
<circle cx="85" cy="271" r="22" stroke="#FFB038" stroke-width="6"/>
<circle cx="85" cy="271" r="34.5" stroke="#FFF457" stroke-width="6"/>
<circle cx="85" cy="271" r="47" stroke="#9EDCFF" stroke-width="6"/>
<circle cx="17" cy="335" r="22" stroke="#FFB038" stroke-width="6"/>
<circle cx="17" cy="335" r="34.5" stroke="#FFF457" stroke-width="6"/>
<circle cx="17" cy="335" r="47" stroke="#9EDCFF" stroke-width="6"/>
<circle cx="80" cy="407" r="22" stroke="#FFB038" stroke-width="6"/>
<circle cx="80" cy="407" r="34.5" stroke="#FFF457" stroke-width="6"/>
<circle cx="80" cy="407" r="47" stroke="#9EDCFF" stroke-width="6"/>
<circle cx="17" cy="482" r="22" stroke="#FFB038" stroke-width="6"/>
<circle cx="17" cy="482" r="34.5" stroke="#FFF457" stroke-width="6"/>
<circle cx="17" cy="482" r="47" stroke="#9EDCFF" stroke-width="6"/>
<circle cx="80" cy="555" r="22" stroke="#FFB038" stroke-width="6"/>
<circle cx="80" cy="555" r="34.5" stroke="#FFF457" stroke-width="6"/>
<circle cx="80" cy="555" r="47" stroke="#9EDCFF" stroke-width="6"/>
<circle cx="10" cy="619" r="22" stroke="#FFB038" stroke-width="6"/>
<circle cx="10" cy="619" r="34.5" stroke="#FFF457" stroke-width="6"/>
<circle cx="10" cy="619" r="47" stroke="#9EDCFF" stroke-width="6"/>
<circle cx="73" cy="691" r="22" stroke="#FFB038" stroke-width="6"/>
<circle cx="73" cy="691" r="34.5" stroke="#FFF457" stroke-width="6"/>
<circle cx="73" cy="691" r="47" stroke="#9EDCFF" stroke-width="6"/>
<circle cx="6" cy="764" r="22" stroke="#FFB038" stroke-width="6"/>
<circle cx="6" cy="764" r="34.5" stroke="#FFF457" stroke-width="6"/>
<circle cx="6" cy="764" r="47" stroke="#9EDCFF" stroke-width="6"/>
</g>
</svg>
