<svg width="161" height="768" viewBox="0 0 161 768" fill="none" xmlns="http://www.w3.org/2000/svg">
<g opacity="0.4">
<circle cx="141" cy="22" r="22" stroke="#FFB038" stroke-width="6"/>
<circle cx="141" cy="22" r="34.5" stroke="#FFF457" stroke-width="6"/>
<circle cx="141" cy="22" r="47" stroke="#9EDCFF" stroke-width="6"/>
<circle cx="54" cy="70" r="22" stroke="#FFB038" stroke-width="6"/>
<circle cx="54" cy="70" r="34.5" stroke="#FFF457" stroke-width="6"/>
<circle cx="54" cy="70" r="47" stroke="#9EDCFF" stroke-width="6"/>
<circle cx="111" cy="146" r="22" stroke="#FFB038" stroke-width="6"/>
<circle cx="111" cy="146" r="34.5" stroke="#FFF457" stroke-width="6"/>
<circle cx="111" cy="146" r="47" stroke="#9EDCFF" stroke-width="6"/>
<circle cx="54" cy="221" r="22" stroke="#FFB038" stroke-width="6"/>
<circle cx="54" cy="221" r="34.5" stroke="#FFF457" stroke-width="6"/>
<circle cx="54" cy="221" r="47" stroke="#9EDCFF" stroke-width="6"/>
<circle cx="129" cy="278" r="22" stroke="#FFB038" stroke-width="6"/>
<circle cx="129" cy="278" r="34.5" stroke="#FFF457" stroke-width="6"/>
<circle cx="129" cy="278" r="47" stroke="#9EDCFF" stroke-width="6"/>
<circle cx="61" cy="342" r="22" stroke="#FFB038" stroke-width="6"/>
<circle cx="61" cy="342" r="34.5" stroke="#FFF457" stroke-width="6"/>
<circle cx="61" cy="342" r="47" stroke="#9EDCFF" stroke-width="6"/>
<circle cx="124" cy="414" r="22" stroke="#FFB038" stroke-width="6"/>
<circle cx="124" cy="414" r="34.5" stroke="#FFF457" stroke-width="6"/>
<circle cx="124" cy="414" r="47" stroke="#9EDCFF" stroke-width="6"/>
<circle cx="61" cy="489" r="22" stroke="#FFB038" stroke-width="6"/>
<circle cx="61" cy="489" r="34.5" stroke="#FFF457" stroke-width="6"/>
<circle cx="61" cy="489" r="47" stroke="#9EDCFF" stroke-width="6"/>
<circle cx="124" cy="562" r="22" stroke="#FFB038" stroke-width="6"/>
<circle cx="124" cy="562" r="34.5" stroke="#FFF457" stroke-width="6"/>
<circle cx="124" cy="562" r="47" stroke="#9EDCFF" stroke-width="6"/>
<circle cx="54" cy="626" r="22" stroke="#FFB038" stroke-width="6"/>
<circle cx="54" cy="626" r="34.5" stroke="#FFF457" stroke-width="6"/>
<circle cx="54" cy="626" r="47" stroke="#9EDCFF" stroke-width="6"/>
<circle cx="117" cy="698" r="22" stroke="#FFB038" stroke-width="6"/>
<circle cx="117" cy="698" r="34.5" stroke="#FFF457" stroke-width="6"/>
<circle cx="117" cy="698" r="47" stroke="#9EDCFF" stroke-width="6"/>
<circle cx="50" cy="771" r="22" stroke="#FFB038" stroke-width="6"/>
<circle cx="50" cy="771" r="34.5" stroke="#FFF457" stroke-width="6"/>
<circle cx="50" cy="771" r="47" stroke="#9EDCFF" stroke-width="6"/>
</g>
</svg>
