<svg width="46" height="50" viewBox="0 0 46 50" fill="none" xmlns="http://www.w3.org/2000/svg">
<path d="M21.4327 39.3366L16.0154 47.96C15.6988 48.4608 15.291 48.8912 14.8153 49.2266C14.3396 49.5621 13.8053 49.7959 13.2432 49.9148C12.9735 49.9711 12.6992 49.9996 12.4242 50C11.6228 50.002 10.8394 49.7514 10.1759 49.2809C9.70719 48.9528 9.30872 48.5263 9.00575 48.0284C8.70278 47.5305 8.50191 46.9722 8.4159 46.3887C8.32693 45.807 8.35185 45.2123 8.48913 44.641C8.62642 44.0696 8.87321 43.5335 9.21451 43.0651L16.6665 32.945C16.7483 32.8341 16.8502 32.7412 16.9663 32.6716C17.0824 32.6019 17.2105 32.5569 17.3432 32.5391C17.476 32.5213 17.6107 32.5311 17.7399 32.5678C17.869 32.6045 17.99 32.6675 18.0958 32.7532C18.2017 32.8389 18.2904 32.9456 18.3569 33.0672C18.4234 33.1888 18.4664 33.3229 18.4834 33.4619C18.5004 33.6009 18.4911 33.742 18.4561 33.8772C18.421 34.0124 18.3608 34.1391 18.279 34.2499L10.827 44.37C10.6541 44.6087 10.5296 44.882 10.4614 45.1729C10.3932 45.4639 10.3826 45.7664 10.4302 46.0618C10.4779 46.3572 10.5828 46.6393 10.7385 46.8906C10.8942 47.142 11.0974 47.3573 11.3356 47.5232C11.5575 47.6785 11.8068 47.7859 12.0689 47.8389C12.3309 47.892 12.6005 47.8897 12.8617 47.8322C13.1596 47.7696 13.4427 47.6462 13.695 47.4689C13.9473 47.2916 14.1636 47.0639 14.3317 46.7989L19.7287 38.1648C19.8792 37.934 20.1102 37.7744 20.3721 37.7203C20.6339 37.6663 20.9056 37.7221 21.1285 37.8758C21.3514 38.0296 21.5076 38.2689 21.5636 38.5421C21.6195 38.8154 21.5707 39.1007 21.4276 39.3366H21.4327ZM42.8374 1.15725C40.9401 -0.259562 38.3612 -0.366089 35.5838 0.8643C32.7198 2.23472 30.2666 4.39656 28.4879 7.11745C25.9141 10.8992 24.7085 15.2295 25.2681 18.7023C25.3919 19.5061 25.3237 20.3296 25.0697 21.0991C25.0266 21.2317 25.0089 21.3718 25.0175 21.5116C25.0261 21.6513 25.061 21.7879 25.12 21.9135C25.1791 22.0391 25.2612 22.1513 25.3616 22.2437C25.4621 22.3361 25.5789 22.4069 25.7055 22.452C25.8321 22.4972 25.9659 22.5157 26.0994 22.5067C26.2328 22.4976 26.3632 22.4612 26.4832 22.3993C26.6032 22.3375 26.7104 22.2516 26.7986 22.1464C26.8868 22.0412 26.9544 21.9188 26.9975 21.7863C27.36 20.6828 27.4561 19.5025 27.2773 18.3507C26.8144 15.4639 27.9131 11.6342 30.1462 8.35317C31.7015 5.95583 33.8501 4.04654 36.3621 2.82973C38.468 1.90294 40.3399 1.92425 41.6421 2.89897C42.9443 3.8737 43.5801 5.71662 43.4275 8.10283C43.1499 10.9869 42.1283 13.7377 40.4721 16.0604C38.2594 19.3468 35.1362 21.685 32.3792 22.1644C31.3026 22.3585 30.2868 22.8227 29.4188 23.5173C29.1817 23.707 28.9557 23.9115 28.7423 24.1298C28.564 24.3301 28.4663 24.5945 28.4693 24.8683C28.4723 25.142 28.5758 25.404 28.7583 25.6C28.9409 25.7959 29.1885 25.9107 29.4497 25.9207C29.711 25.9306 29.9658 25.8348 30.1614 25.6532C30.322 25.4948 30.4919 25.3472 30.6701 25.2111C31.2738 24.7258 31.9806 24.4005 32.7302 24.263C36.0518 23.6824 39.5667 21.0672 42.1457 17.2961C44.0206 14.6505 45.1724 11.5203 45.4774 8.24131C45.6606 5.09343 44.7246 2.57406 42.8374 1.15725ZM20.6341 20.5292C20.6109 20.4861 20.5987 20.4375 20.5987 20.3881C20.5987 20.3386 20.6109 20.29 20.6341 20.2469C21.0773 19.198 21.2523 18.0463 21.1417 16.9051C21.0311 15.7639 20.6388 14.6725 20.0033 13.7381L10.9185 0.464823C10.8421 0.347553 10.7441 0.247462 10.6302 0.170432C10.5163 0.0934023 10.3889 0.0409881 10.2553 0.01627C10.1218 -0.0084482 9.98494 -0.00497164 9.85273 0.0264953C9.72052 0.0579623 9.59565 0.116785 9.48546 0.199506C9.37527 0.282227 9.28198 0.387177 9.21107 0.508189C9.14017 0.629201 9.09308 0.763833 9.07258 0.904172C9.05208 1.04451 9.05857 1.18773 9.09168 1.3254C9.12478 1.46308 9.18384 1.59243 9.26537 1.70587L18.34 14.9792C18.7705 15.6113 19.0363 16.3499 19.1112 17.1223C19.1862 17.8947 19.0676 18.6742 18.7673 19.3841C18.5956 19.779 18.5291 20.2152 18.5748 20.6465C18.6205 21.0778 18.7766 21.4882 19.0267 21.8342L35.8127 44.5671C35.9784 44.7846 36.1001 45.035 36.1704 45.3033C36.2407 45.5716 36.2582 45.852 36.2217 46.1276C36.1852 46.4031 36.0956 46.668 35.9583 46.9061C35.8209 47.1443 35.6387 47.3506 35.4228 47.5127C35.2069 47.6748 34.9617 47.7891 34.7023 47.8489C34.4428 47.9086 34.1744 47.9124 33.9135 47.86C33.6526 47.8077 33.4046 47.7003 33.1845 47.5445C32.9645 47.3886 32.777 47.1875 32.6336 46.9533L17.4041 23.0379C17.1728 22.6751 16.8522 22.3846 16.4761 22.197C16.0999 22.0095 15.6824 21.932 15.2677 21.9727C14.5291 22.044 13.7856 21.9125 13.1103 21.5912C12.4351 21.2699 11.8515 20.7698 11.417 20.1404L2.35766 6.89907C2.28124 6.7818 2.1832 6.68171 2.06931 6.60468C1.95542 6.52765 1.82797 6.47523 1.69446 6.45052C1.56095 6.4258 1.42406 6.42927 1.29185 6.46074C1.15964 6.49221 1.03477 6.55103 0.924578 6.63375C0.814387 6.71647 0.721099 6.82142 0.650195 6.94243C0.579292 7.06345 0.532205 7.19808 0.511701 7.33842C0.491196 7.47876 0.497689 7.62197 0.530797 7.75965C0.563906 7.89732 0.622961 8.02668 0.704493 8.14011L9.77404 21.4081C10.416 22.3403 11.2793 23.0808 12.2785 23.5564C13.2778 24.0319 14.3783 24.2259 15.4711 24.1192C15.5183 24.1115 15.5665 24.1168 15.6111 24.1345C15.6557 24.1523 15.6951 24.1819 15.7255 24.2204L30.9346 48.1304C31.2297 48.5995 31.6128 49.0009 32.0604 49.3104C32.5081 49.6198 33.0111 49.8309 33.539 49.9307C33.779 49.9768 34.0224 50 34.2664 50C35.0119 49.9979 35.742 49.7772 36.3739 49.3631C37.0059 48.9489 37.5145 48.3578 37.8421 47.6566C38.1698 46.9554 38.3035 46.1721 38.228 45.3955C38.1525 44.6188 37.8709 43.8798 37.415 43.2621L20.6341 20.5292ZM14.1333 17.6636C14.3197 17.664 14.5027 17.6107 14.6621 17.5096C14.8216 17.4085 14.9515 17.2635 15.0376 17.0903C15.1237 16.9172 15.1627 16.7226 15.1503 16.5278C15.138 16.333 15.0747 16.1456 14.9675 15.9858L6.67625 3.58607C6.59977 3.47136 6.50245 3.37354 6.38987 3.29821C6.27728 3.22288 6.15163 3.17151 6.02008 3.14702C5.88853 3.12254 5.75367 3.12543 5.62319 3.15552C5.49271 3.18562 5.36916 3.24233 5.25961 3.32242C5.15006 3.40251 5.05665 3.50441 4.98471 3.6223C4.91277 3.74019 4.8637 3.87176 4.84032 4.00951C4.81694 4.14725 4.8197 4.28847 4.84844 4.4251C4.87718 4.56173 4.93134 4.6911 5.00782 4.80581L13.2991 17.2056C13.3926 17.3467 13.5173 17.462 13.6625 17.5418C13.8078 17.6216 13.9693 17.6634 14.1333 17.6636Z" fill="#FFB100"/>
</svg>

