<svg width="14" height="24" viewBox="0 0 14 24" fill="none" xmlns="http://www.w3.org/2000/svg">
<path d="M3.65183 0C3.65183 0 7.37333 2.65227 3.65183 8.10132C0.288779 13.0255 -1.71872 18.2531 1.99401 22.1571C3.06962 23.2883 4.34515 23.8641 5.64828 24C3.5412 23.3797 1.97143 21.2592 3.80108 17.4663C4.92636 15.1334 7.72877 12.3862 6.79564 9.15033C6.79564 9.15033 9.31836 12.3566 7.60034 17.243C6.81997 19.4625 10.259 19.705 9.32739 17.282C8.764 15.818 11.9868 20.1917 10.2512 22.7187C11.889 21.5768 12.7755 19.6974 13.4257 17.6905C15.2701 12.0003 12.8429 2.82183 3.65183 0Z" fill="white"/>
</svg>
