<svg width="50" height="50" viewBox="0 0 50 50" fill="none" xmlns="http://www.w3.org/2000/svg">
<rect width="50" height="50" rx="8" fill="#FF9900"/>
<path d="M21.6518 13C21.6518 13 25.3733 15.6523 21.6518 21.1013C18.2888 26.0255 16.2813 31.2531 19.994 35.1571C21.0696 36.2883 22.3452 36.8641 23.6483 37C21.5412 36.3797 19.9714 34.2592 21.8011 30.4663C22.9264 28.1334 25.7288 25.3862 24.7956 22.1503C24.7956 22.1503 27.3184 25.3566 25.6003 30.243C24.82 32.4625 28.259 32.705 27.3274 30.282C26.764 28.818 29.9868 33.1917 28.2512 35.7187C29.889 34.5768 30.7755 32.6974 31.4257 30.6905C33.2701 25.0003 30.8429 15.8218 21.6518 13Z" fill="white"/>
</svg>
