<svg width="30" height="30" viewBox="0 0 30 30" fill="none" xmlns="http://www.w3.org/2000/svg">
<path d="M16.2917 9.51807H12.7739V10.5247H16.2917V9.51807Z" fill="#FF9900"/>
<path d="M15.1107 12.0753H12.7739V13.0819H15.1107V12.0753Z" fill="#FF9900"/>
<path d="M24.8839 19.5569L17.1989 22.383C17.003 21.9331 16.6801 21.5554 16.2728 21.2999L10.1309 17.4229C8.70243 16.5243 7.02941 16.1353 5.36762 16.3157L0.433953 16.8628C0.31483 16.8759 0.20461 16.9343 0.124498 17.0267C0.044387 17.119 4.38627e-05 17.2388 0 17.363V25.2443C0 25.3778 0.0511409 25.5058 0.142172 25.6002C0.233204 25.6946 0.356669 25.7476 0.485406 25.7476H4.35701L14.3428 29.6341C15.1167 29.9369 15.9466 30.0541 16.7705 29.977C17.5943 29.9 18.3906 29.6306 19.0998 29.1892L29.5724 22.3135C29.6845 22.2401 29.7799 22.1423 29.8521 22.027C29.9243 21.9116 29.9715 21.7814 29.9905 21.6454C30.0095 21.5093 29.9999 21.3705 29.9622 21.2387C29.9246 21.1069 29.8598 20.985 29.7724 20.8816C29.1814 20.1755 28.3983 19.671 27.5259 19.4346C26.6535 19.1982 25.7325 19.2409 24.8839 19.5569ZM18.592 28.3316C18.0088 28.6928 17.3544 28.9128 16.6777 28.9751C16.001 29.0374 15.3195 28.9404 14.684 28.6914L4.61573 24.7727C4.56123 24.7516 4.50352 24.7409 4.44535 24.741H0.971783V17.816L5.47199 17.3177C6.92135 17.1607 8.38045 17.4998 9.62658 18.2831L15.7689 22.162C16.0683 22.3518 16.2881 22.6512 16.3848 23.0009C16.4814 23.3507 16.4478 23.7254 16.2907 24.0507C16.1335 24.376 15.8643 24.6283 15.5362 24.7575C15.2082 24.8868 14.8453 24.8836 14.5195 24.7485L8.58441 22.2874L8.22424 23.2225L14.1583 25.6837C14.5202 25.8333 14.912 25.8883 15.2992 25.8438C15.6865 25.7992 16.0571 25.6565 16.3786 25.4282C16.7 25.2 16.9623 24.8932 17.1422 24.5349C17.3222 24.1766 17.4144 23.7779 17.4106 23.374L25.2076 20.5052C25.8633 20.2611 26.5743 20.2251 27.2498 20.4017C27.9254 20.5783 28.5349 20.9595 29.0006 21.4967L18.592 28.3316Z" fill="#FF9900"/>
<path d="M10.7222 15.9623H25.1451C25.2738 15.9623 25.3973 15.9093 25.4883 15.8149C25.5794 15.7205 25.6305 15.5925 25.6305 15.459V0.503305C25.6305 0.36982 25.5794 0.241802 25.4883 0.147414C25.3973 0.0530266 25.2738 0 25.1451 0H10.7222C10.5935 0 10.47 0.0530266 10.379 0.147414C10.288 0.241802 10.2368 0.36982 10.2368 0.503305V15.459C10.2368 15.5925 10.288 15.7205 10.379 15.8149C10.47 15.9093 10.5935 15.9623 10.7222 15.9623ZM19.5979 1.00661V5.89621H16.2694V1.00661H19.5979ZM11.2076 1.00661H15.2986V6.39952C15.2986 6.533 15.3498 6.66102 15.4408 6.75541C15.5318 6.8498 15.6553 6.90282 15.784 6.90282H20.0833C20.212 6.90282 20.3355 6.8498 20.4265 6.75541C20.5175 6.66102 20.5687 6.533 20.5687 6.39952V1.00661H24.6597V14.9557H11.2076V1.00661Z" fill="#FF9900"/>
</svg>
